<svg width="1100" height="560" viewBox="0 0 1100 560" xmlns="http://www.w3.org/2000/svg">
  <style>
    .fade-up { opacity: 0; animation: fadeUp .6s ease forwards; }
    @keyframes fadeUp { from { opacity:0; transform: translateY(8px);} to { opacity:1; transform: translateY(0);} }
    @keyframes draw { to { stroke-dashoffset: 0; } }
    .dot { opacity:0; animation: dotIn .3s ease forwards; }
    @keyframes dotIn { to { opacity:1; } }
    .area-fade { animation: areaIn 1.2s ease forwards; animation-delay: .9s; }
    @keyframes areaIn { to { fill-opacity: .12; } }
  </style>
  <rect width="1100" height="560" fill="#0d1117"/>
  <text x="24" y="38" fill="#f0f6fc" font-size="22" font-weight="700" font-family="sans-serif">📊 Visão Geral de Métricas do GitHub</text>
  
    <g class="fade-up" style="animation-delay:0.00s">
      <rect x="24" y="58" width="251" height="78" rx="8" fill="#161b22" stroke="#30363d"/>
      <text x="38" y="84" fill="#8b949e" font-size="13" font-family="sans-serif">Repositórios</text>
      <text x="38" y="116" fill="#f0f6fc" font-size="26" font-weight="700" font-family="sans-serif">41</text>
    </g>
    <g class="fade-up" style="animation-delay:0.08s">
      <rect x="291" y="58" width="251" height="78" rx="8" fill="#161b22" stroke="#30363d"/>
      <text x="305" y="84" fill="#8b949e" font-size="13" font-family="sans-serif">Commits (ano atual)</text>
      <text x="305" y="116" fill="#f0f6fc" font-size="26" font-weight="700" font-family="sans-serif">179</text>
    </g>
    <g class="fade-up" style="animation-delay:0.16s">
      <rect x="558" y="58" width="251" height="78" rx="8" fill="#161b22" stroke="#30363d"/>
      <text x="572" y="84" fill="#8b949e" font-size="13" font-family="sans-serif">Pull Requests</text>
      <text x="572" y="116" fill="#f0f6fc" font-size="26" font-weight="700" font-family="sans-serif">25</text>
    </g>
    <g class="fade-up" style="animation-delay:0.24s">
      <rect x="825" y="58" width="251" height="78" rx="8" fill="#161b22" stroke="#30363d"/>
      <text x="839" y="84" fill="#8b949e" font-size="13" font-family="sans-serif">Issues</text>
      <text x="839" y="116" fill="#f0f6fc" font-size="26" font-weight="700" font-family="sans-serif">0</text>
    </g>
  
  <g>
    <rect x="24" y="158" width="700" height="336" rx="8" fill="#161b22" stroke="#30363d"/>
    <text x="40" y="184" fill="#f0f6fc" font-size="15" font-weight="700" font-family="sans-serif">📈 Atividade nos Repositórios</text>
    
    <line x1="74" y1="394.0" x2="694" y2="394.0" stroke="#21262d" stroke-width="1"/>
    <text x="64" y="398.0" fill="#8b949e" font-size="10" font-family="sans-serif" text-anchor="end">0</text>
    <line x1="74" y1="346.5" x2="694" y2="346.5" stroke="#21262d" stroke-width="1"/>
    <text x="64" y="350.5" fill="#8b949e" font-size="10" font-family="sans-serif" text-anchor="end">20</text>
    <line x1="74" y1="299.0" x2="694" y2="299.0" stroke="#21262d" stroke-width="1"/>
    <text x="64" y="303.0" fill="#8b949e" font-size="10" font-family="sans-serif" text-anchor="end">40</text>
    <line x1="74" y1="251.5" x2="694" y2="251.5" stroke="#21262d" stroke-width="1"/>
    <text x="64" y="255.5" fill="#8b949e" font-size="10" font-family="sans-serif" text-anchor="end">60</text>
    <line x1="74" y1="204.0" x2="694" y2="204.0" stroke="#21262d" stroke-width="1"/>
    <text x="64" y="208.0" fill="#8b949e" font-size="10" font-family="sans-serif" text-anchor="end">80</text>
    <path d="M74.0,389.3 L177.3,394.0 L280.7,394.0 L384.0,394.0 L487.3,329.9 L590.7,225.4 L694.0,213.5 L694.0,394 L74.0,394 Z" fill="#2ea043" fill-opacity="0" class="area-fade"/>
    <path d="M74.0,389.3 L177.3,394.0 L280.7,394.0 L384.0,394.0 L487.3,329.9 L590.7,225.4 L694.0,213.5" fill="none" stroke="#2ea043" stroke-width="2.5" stroke-linecap="round" stroke-linejoin="round"
      style="stroke-dasharray:687;stroke-dashoffset:687;animation:draw 1.6s ease forwards;animation-delay:.3s"/>
    <path d="M74.0,394.0 L177.3,394.0 L280.7,394.0 L384.0,394.0 L487.3,377.4 L590.7,379.8 L694.0,365.5" fill="none" stroke="#a371f7" stroke-width="2" stroke-linecap="round" stroke-linejoin="round"
      style="stroke-dasharray:627;stroke-dashoffset:627;animation:draw 1.6s ease forwards;animation-delay:.5s"/>
    <path d="M74.0,394.0 L177.3,394.0 L280.7,394.0 L384.0,394.0 L487.3,394.0 L590.7,394.0 L694.0,394.0" fill="none" stroke="#d29922" stroke-width="2" stroke-linecap="round" stroke-linejoin="round"
      style="stroke-dasharray:624;stroke-dashoffset:624;animation:draw 1.6s ease forwards;animation-delay:.7s"/>
    <circle class="dot" style="animation-delay:1.50s" cx="74.0" cy="389.3" r="3" fill="#2ea043"/><circle class="dot" style="animation-delay:1.55s" cx="74.0" cy="394.0" r="3" fill="#a371f7"/><circle class="dot" style="animation-delay:1.60s" cx="74.0" cy="394.0" r="3" fill="#d29922"/><circle class="dot" style="animation-delay:1.50s" cx="177.3" cy="394.0" r="3" fill="#2ea043"/><circle class="dot" style="animation-delay:1.55s" cx="177.3" cy="394.0" r="3" fill="#a371f7"/><circle class="dot" style="animation-delay:1.60s" cx="177.3" cy="394.0" r="3" fill="#d29922"/><circle class="dot" style="animation-delay:1.50s" cx="280.7" cy="394.0" r="3" fill="#2ea043"/><circle class="dot" style="animation-delay:1.55s" cx="280.7" cy="394.0" r="3" fill="#a371f7"/><circle class="dot" style="animation-delay:1.60s" cx="280.7" cy="394.0" r="3" fill="#d29922"/><circle class="dot" style="animation-delay:1.50s" cx="384.0" cy="394.0" r="3" fill="#2ea043"/><circle class="dot" style="animation-delay:1.55s" cx="384.0" cy="394.0" r="3" fill="#a371f7"/><circle class="dot" style="animation-delay:1.60s" cx="384.0" cy="394.0" r="3" fill="#d29922"/><circle class="dot" style="animation-delay:1.50s" cx="487.3" cy="329.9" r="3" fill="#2ea043"/><circle class="dot" style="animation-delay:1.55s" cx="487.3" cy="377.4" r="3" fill="#a371f7"/><circle class="dot" style="animation-delay:1.60s" cx="487.3" cy="394.0" r="3" fill="#d29922"/><circle class="dot" style="animation-delay:1.50s" cx="590.7" cy="225.4" r="3" fill="#2ea043"/><circle class="dot" style="animation-delay:1.55s" cx="590.7" cy="379.8" r="3" fill="#a371f7"/><circle class="dot" style="animation-delay:1.60s" cx="590.7" cy="394.0" r="3" fill="#d29922"/><circle class="dot" style="animation-delay:1.50s" cx="694.0" cy="213.5" r="3" fill="#2ea043"/><circle class="dot" style="animation-delay:1.55s" cx="694.0" cy="365.5" r="3" fill="#a371f7"/><circle class="dot" style="animation-delay:1.60s" cx="694.0" cy="394.0" r="3" fill="#d29922"/>
    <text x="74.0" y="412" fill="#8b949e" font-size="10" font-family="sans-serif" text-anchor="middle">fev</text><text x="177.3" y="412" fill="#8b949e" font-size="10" font-family="sans-serif" text-anchor="middle">mar</text><text x="280.7" y="412" fill="#8b949e" font-size="10" font-family="sans-serif" text-anchor="middle">abr</text><text x="384.0" y="412" fill="#8b949e" font-size="10" font-family="sans-serif" text-anchor="middle">mai</text><text x="487.3" y="412" fill="#8b949e" font-size="10" font-family="sans-serif" text-anchor="middle">jun</text><text x="590.7" y="412" fill="#8b949e" font-size="10" font-family="sans-serif" text-anchor="middle">jul</text><text x="694.0" y="412" fill="#8b949e" font-size="10" font-family="sans-serif" text-anchor="middle">ago</text>
    
    <line x1="104" y1="436" x2="120" y2="436" stroke="#2ea043" stroke-width="3"/>
    <text x="126" y="440" fill="#8b949e" font-size="11" font-family="sans-serif">Commits</text>
    <line x1="197.5" y1="436" x2="213.5" y2="436" stroke="#a371f7" stroke-width="3"/>
    <text x="219.5" y="440" fill="#8b949e" font-size="11" font-family="sans-serif">Pull Requests</text>
    <line x1="330" y1="436" x2="346" y2="436" stroke="#d29922" stroke-width="3"/>
    <text x="352" y="440" fill="#8b949e" font-size="11" font-family="sans-serif">Issues</text>
  </g>
  
  <g>
    <rect x="740" y="158" width="336" height="336" rx="8" fill="#161b22" stroke="#30363d"/>
    <text x="756" y="184" fill="#f0f6fc" font-size="15" font-weight="700" font-family="sans-serif">💻 Linguagens</text>
    
    <circle cx="908" cy="292" r="78" fill="none" stroke="#3572A5" stroke-width="30"
      stroke-dasharray="0 490.1" stroke-dashoffset="0.0"
      transform="rotate(-90 908 292)" stroke-linecap="butt">
      <animate attributeName="stroke-dasharray" from="0 490.1" to="138.2 351.9"
        begin="0.30s" dur="0.9s" fill="freeze" calcMode="spline" keySplines="0.25 0.1 0.25 1"/>
    </circle>
    <circle cx="908" cy="292" r="78" fill="none" stroke="#e34c26" stroke-width="30"
      stroke-dasharray="0 490.1" stroke-dashoffset="-138.2"
      transform="rotate(-90 908 292)" stroke-linecap="butt">
      <animate attributeName="stroke-dasharray" from="0 490.1" to="136.7 353.4"
        begin="0.45s" dur="0.9s" fill="freeze" calcMode="spline" keySplines="0.25 0.1 0.25 1"/>
    </circle>
    <circle cx="908" cy="292" r="78" fill="none" stroke="#4F5D95" stroke-width="30"
      stroke-dasharray="0 490.1" stroke-dashoffset="-274.9"
      transform="rotate(-90 908 292)" stroke-linecap="butt">
      <animate attributeName="stroke-dasharray" from="0 490.1" to="58.3 431.8"
        begin="0.60s" dur="0.9s" fill="freeze" calcMode="spline" keySplines="0.25 0.1 0.25 1"/>
    </circle>
    <circle cx="908" cy="292" r="78" fill="none" stroke="#89e051" stroke-width="30"
      stroke-dasharray="0 490.1" stroke-dashoffset="-333.3"
      transform="rotate(-90 908 292)" stroke-linecap="butt">
      <animate attributeName="stroke-dasharray" from="0 490.1" to="52.9 437.2"
        begin="0.75s" dur="0.9s" fill="freeze" calcMode="spline" keySplines="0.25 0.1 0.25 1"/>
    </circle>
    <circle cx="908" cy="292" r="78" fill="none" stroke="#f1e05a" stroke-width="30"
      stroke-dasharray="0 490.1" stroke-dashoffset="-386.2"
      transform="rotate(-90 908 292)" stroke-linecap="butt">
      <animate attributeName="stroke-dasharray" from="0 490.1" to="40.2 449.9"
        begin="0.90s" dur="0.9s" fill="freeze" calcMode="spline" keySplines="0.25 0.1 0.25 1"/>
    </circle>
    <circle cx="908" cy="292" r="78" fill="none" stroke="#484f58" stroke-width="30"
      stroke-dasharray="0 490.1" stroke-dashoffset="-426.4"
      transform="rotate(-90 908 292)" stroke-linecap="butt">
      <animate attributeName="stroke-dasharray" from="0 490.1" to="63.7 426.4"
        begin="1.05s" dur="0.9s" fill="freeze" calcMode="spline" keySplines="0.25 0.1 0.25 1"/>
    </circle>
    
    <g class="fade-up" style="animation-delay:0.90s">
      <rect x="756" y="395" width="10" height="10" rx="2" fill="#3572A5"/>
      <text x="772" y="404" fill="#8b949e" font-size="11" font-family="sans-serif">Python</text>
      <text x="1060" y="404" fill="#8b949e" font-size="11" font-family="sans-serif" text-anchor="end">28.2%</text>
    </g>
    <g class="fade-up" style="animation-delay:0.96s">
      <rect x="756" y="413" width="10" height="10" rx="2" fill="#e34c26"/>
      <text x="772" y="422" fill="#8b949e" font-size="11" font-family="sans-serif">HTML</text>
      <text x="1060" y="422" fill="#8b949e" font-size="11" font-family="sans-serif" text-anchor="end">27.9%</text>
    </g>
    <g class="fade-up" style="animation-delay:1.02s">
      <rect x="756" y="431" width="10" height="10" rx="2" fill="#4F5D95"/>
      <text x="772" y="440" fill="#8b949e" font-size="11" font-family="sans-serif">PHP</text>
      <text x="1060" y="440" fill="#8b949e" font-size="11" font-family="sans-serif" text-anchor="end">11.9%</text>
    </g>
    <g class="fade-up" style="animation-delay:1.08s">
      <rect x="756" y="449" width="10" height="10" rx="2" fill="#89e051"/>
      <text x="772" y="458" fill="#8b949e" font-size="11" font-family="sans-serif">Shell</text>
      <text x="1060" y="458" fill="#8b949e" font-size="11" font-family="sans-serif" text-anchor="end">10.8%</text>
    </g>
    <g class="fade-up" style="animation-delay:1.14s">
      <rect x="756" y="467" width="10" height="10" rx="2" fill="#f1e05a"/>
      <text x="772" y="476" fill="#8b949e" font-size="11" font-family="sans-serif">JavaScript</text>
      <text x="1060" y="476" fill="#8b949e" font-size="11" font-family="sans-serif" text-anchor="end">8.2%</text>
    </g>
    <g class="fade-up" style="animation-delay:1.20s">
      <rect x="756" y="485" width="10" height="10" rx="2" fill="#484f58"/>
      <text x="772" y="494" fill="#8b949e" font-size="11" font-family="sans-serif">Outros</text>
      <text x="1060" y="494" fill="#8b949e" font-size="11" font-family="sans-serif" text-anchor="end">13%</text>
    </g>
  </g>
</svg>